<svg xmlns="http://www.w3.org/2000/svg" viewBox="0 0 116.11 111.45"><defs><style>.cls-1{fill:#fff;}.cls-1,.cls-2,.cls-3,.cls-4{stroke:#231815;stroke-miterlimit:10;}.cls-2{fill:none;}.cls-3{fill:#fabe00;}.cls-4{fill:#275caa;}</style></defs><title>资源 35</title><g id="图层_2" data-name="图层 2"><g id="图层_1-2" data-name="图层 1"><polygon class="cls-1" points="58.05 10.5 10.5 45.05 28.66 100.95 87.44 100.95 105.61 45.05 58.05 10.5"/><line class="cls-2" x1="58.09" y1="60.56" x2="58.05" y2="10.5"/><line class="cls-2" x1="105.67" y1="45.1" x2="58.09" y2="60.56"/><line class="cls-2" x1="57.97" y1="61.06" x2="86.95" y2="100.95"/><line class="cls-2" x1="28.57" y1="100.95" x2="58.2" y2="60.16"/><line class="cls-2" x1="58.09" y1="60.56" x2="10.5" y2="45.1"/><circle class="cls-3" cx="58.05" cy="10.5" r="10"/><circle class="cls-3" cx="105.61" cy="45.12" r="10"/><circle class="cls-3" cx="28.57" cy="100.95" r="10"/><circle class="cls-3" cx="87.57" cy="100.95" r="10"/><circle class="cls-3" cx="10.5" cy="45.1" r="10"/><circle class="cls-4" cx="58.09" cy="60.56" r="5"/><circle class="cls-4" cx="33.87" cy="27.89" r="5"/><circle class="cls-4" cx="19.72" cy="73.02" r="5"/><circle class="cls-4" cx="58.05" cy="100.95" r="5"/><circle class="cls-4" cx="96.45" cy="73.02" r="5"/><circle class="cls-4" cx="81.65" cy="27.89" r="5"/></g></g></svg>